<?xml version="1.0" encoding="UTF-8" standalone="no"?>
<!DOCTYPE svg PUBLIC "-//W3C//DTD SVG 1.1//EN"
 "http://www.w3.org/Graphics/SVG/1.1/DTD/svg11.dtd">
<!-- Generated by graphviz version 5.0.0 (0)
 -->
<!-- Title: ledhcl_r1 Pages: 1 -->
<svg width="555pt" height="479pt"
 viewBox="0.00 0.00 555.00 479.00" xmlns="http://www.w3.org/2000/svg" xmlns:xlink="http://www.w3.org/1999/xlink">
<g id="graph0" class="graph" transform="scale(1 1) rotate(0) translate(4 475)">
<title>ledhcl_r1</title>
<polygon fill="white" stroke="transparent" points="-4,4 -4,-475 551,-475 551,4 -4,4"/>
<!-- ON -->
<g id="node1" class="node">
<title>ON</title>
<ellipse fill="none" stroke="black" cx="373" cy="-453" rx="29.5" ry="18"/>
<text text-anchor="middle" x="373" y="-449.3" font-family="Times,serif" font-size="14.00">全灯</text>
</g>
<!-- D70 -->
<g id="node2" class="node">
<title>D70</title>
<ellipse fill="none" stroke="black" cx="255" cy="-366" rx="53.89" ry="18"/>
<text text-anchor="middle" x="255" y="-362.3" font-family="Times,serif" font-size="14.00">調光 (70%)</text>
</g>
<!-- ON&#45;&gt;D70 -->
<g id="edge7" class="edge">
<title>ON&#45;&gt;D70</title>
<path fill="none" stroke="black" d="M350.08,-441.8C336.95,-435.49 320.45,-426.74 307,-417 296.49,-409.39 285.96,-399.74 277.16,-390.96"/>
<polygon fill="black" stroke="black" points="279.4,-388.25 269.91,-383.54 274.39,-393.14 279.4,-388.25"/>
<text text-anchor="middle" x="321.5" y="-405.8" font-family="Times,serif" font-size="14.00">調光</text>
</g>
<!-- NIGHT -->
<g id="node5" class="node">
<title>NIGHT</title>
<ellipse fill="none" stroke="black" cx="213" cy="-18" rx="38.19" ry="18"/>
<text text-anchor="middle" x="213" y="-14.3" font-family="Times,serif" font-size="14.00">常夜灯</text>
</g>
<!-- ON&#45;&gt;NIGHT -->
<g id="edge13" class="edge">
<title>ON&#45;&gt;NIGHT</title>
<path fill="none" stroke="black" d="M343.73,-451.57C255.8,-449.49 0,-437.4 0,-367 0,-367 0,-367 0,-104 0,-66.49 33.99,-69.82 68,-54 99.3,-39.44 137.31,-30.55 166.56,-25.38"/>
<polygon fill="black" stroke="black" points="167.24,-28.82 176.52,-23.7 166.07,-21.91 167.24,-28.82"/>
<text text-anchor="middle" x="21.5" y="-231.8" font-family="Times,serif" font-size="14.00">常夜灯</text>
</g>
<!-- OFF -->
<g id="node6" class="node">
<title>OFF</title>
<ellipse fill="none" stroke="black" cx="312" cy="-105" rx="29.5" ry="18"/>
<text text-anchor="middle" x="312" y="-101.3" font-family="Times,serif" font-size="14.00">消灯</text>
</g>
<!-- ON&#45;&gt;OFF -->
<g id="edge1" class="edge">
<title>ON&#45;&gt;OFF</title>
<path fill="none" stroke="black" d="M396.12,-441.89C422.19,-428.74 461,-403.11 461,-367 461,-367 461,-367 461,-191 461,-140.16 394.75,-119.33 350.6,-111.09"/>
<polygon fill="black" stroke="black" points="351.18,-107.64 340.73,-109.39 349.99,-114.54 351.18,-107.64"/>
<text text-anchor="middle" x="475.5" y="-275.3" font-family="Times,serif" font-size="14.00">電源</text>
</g>
<!-- D50 -->
<g id="node3" class="node">
<title>D50</title>
<ellipse fill="none" stroke="black" cx="200" cy="-279" rx="53.89" ry="18"/>
<text text-anchor="middle" x="200" y="-275.3" font-family="Times,serif" font-size="14.00">調光 (50%)</text>
</g>
<!-- D70&#45;&gt;D50 -->
<g id="edge8" class="edge">
<title>D70&#45;&gt;D50</title>
<path fill="none" stroke="black" d="M244.13,-348.21C236.22,-335.98 225.37,-319.21 216.41,-305.36"/>
<polygon fill="black" stroke="black" points="219.21,-303.25 210.84,-296.76 213.34,-307.06 219.21,-303.25"/>
<text text-anchor="middle" x="245.5" y="-318.8" font-family="Times,serif" font-size="14.00">調光</text>
</g>
<!-- D70&#45;&gt;NIGHT -->
<g id="edge14" class="edge">
<title>D70&#45;&gt;NIGHT</title>
<path fill="none" stroke="black" d="M201.17,-363.96C142.84,-359.63 58,-342.58 58,-280 58,-280 58,-280 58,-104 58,-54.21 120.25,-33.39 165.85,-24.82"/>
<polygon fill="black" stroke="black" points="166.62,-28.24 175.87,-23.08 165.42,-21.34 166.62,-28.24"/>
<text text-anchor="middle" x="79.5" y="-188.3" font-family="Times,serif" font-size="14.00">常夜灯</text>
</g>
<!-- D70&#45;&gt;OFF -->
<g id="edge2" class="edge">
<title>D70&#45;&gt;OFF</title>
<path fill="none" stroke="black" d="M267.91,-348.07C287.82,-320.78 325.16,-264.59 339,-210 345.81,-183.15 335.63,-152.46 325.89,-131.42"/>
<polygon fill="black" stroke="black" points="328.91,-129.63 321.36,-122.2 322.63,-132.72 328.91,-129.63"/>
<text text-anchor="middle" x="348.5" y="-231.8" font-family="Times,serif" font-size="14.00">電源</text>
</g>
<!-- D30 -->
<g id="node4" class="node">
<title>D30</title>
<ellipse fill="none" stroke="black" cx="276" cy="-192" rx="53.89" ry="18"/>
<text text-anchor="middle" x="276" y="-188.3" font-family="Times,serif" font-size="14.00">調光 (30%)</text>
</g>
<!-- D50&#45;&gt;D30 -->
<g id="edge9" class="edge">
<title>D50&#45;&gt;D30</title>
<path fill="none" stroke="black" d="M214.65,-261.61C226.01,-248.91 241.9,-231.13 254.67,-216.86"/>
<polygon fill="black" stroke="black" points="257.34,-219.13 261.39,-209.34 252.12,-214.46 257.34,-219.13"/>
<text text-anchor="middle" x="257.5" y="-231.8" font-family="Times,serif" font-size="14.00">調光</text>
</g>
<!-- D50&#45;&gt;NIGHT -->
<g id="edge15" class="edge">
<title>D50&#45;&gt;NIGHT</title>
<path fill="none" stroke="black" d="M186.15,-261.52C182.21,-255.97 178.35,-249.52 176,-243 160.6,-200.28 162.34,-185.76 170,-141 175.86,-106.76 190.34,-69.35 200.88,-45.11"/>
<polygon fill="black" stroke="black" points="204.12,-46.44 204.98,-35.88 197.72,-43.6 204.12,-46.44"/>
<text text-anchor="middle" x="191.5" y="-144.8" font-family="Times,serif" font-size="14.00">常夜灯</text>
</g>
<!-- D50&#45;&gt;OFF -->
<g id="edge3" class="edge">
<title>D50&#45;&gt;OFF</title>
<path fill="none" stroke="black" d="M191.09,-261.21C180.9,-239.5 167.62,-201.24 184,-174 185.41,-171.66 243.88,-141.16 281.3,-121.81"/>
<polygon fill="black" stroke="black" points="283.04,-124.86 290.31,-117.16 279.82,-118.64 283.04,-124.86"/>
<text text-anchor="middle" x="198.5" y="-188.3" font-family="Times,serif" font-size="14.00">電源</text>
</g>
<!-- D30&#45;&gt;ON -->
<g id="edge10" class="edge">
<title>D30&#45;&gt;ON</title>
<path fill="none" stroke="black" d="M309.95,-206.09C319.77,-211.47 329.57,-218.66 336,-228 336.35,-228.51 358.75,-365.01 368.52,-424.65"/>
<polygon fill="black" stroke="black" points="365.12,-425.54 370.19,-434.84 372.03,-424.41 365.12,-425.54"/>
<text text-anchor="middle" x="367.5" y="-318.8" font-family="Times,serif" font-size="14.00">調光</text>
</g>
<!-- D30&#45;&gt;NIGHT -->
<g id="edge16" class="edge">
<title>D30&#45;&gt;NIGHT</title>
<path fill="none" stroke="black" d="M262.23,-174.49C252.01,-161.36 238.58,-142.08 231,-123 221.11,-98.09 216.64,-67.69 214.63,-46.21"/>
<polygon fill="black" stroke="black" points="218.11,-45.83 213.81,-36.15 211.14,-46.4 218.11,-45.83"/>
<text text-anchor="middle" x="252.5" y="-101.3" font-family="Times,serif" font-size="14.00">常夜灯</text>
</g>
<!-- D30&#45;&gt;OFF -->
<g id="edge4" class="edge">
<title>D30&#45;&gt;OFF</title>
<path fill="none" stroke="black" d="M283.29,-173.8C288.38,-161.78 295.27,-145.51 301.02,-131.92"/>
<polygon fill="black" stroke="black" points="304.29,-133.17 304.97,-122.6 297.85,-130.44 304.29,-133.17"/>
<text text-anchor="middle" x="311.5" y="-144.8" font-family="Times,serif" font-size="14.00">電源</text>
</g>
<!-- NIGHT&#45;&gt;ON -->
<g id="edge5" class="edge">
<title>NIGHT&#45;&gt;ON</title>
<path fill="none" stroke="black" d="M250.7,-21.56C332.31,-28.12 518,-49.1 518,-104 518,-367 518,-367 518,-367 518,-416.57 454.15,-437.78 411.19,-446.44"/>
<polygon fill="black" stroke="black" points="410.49,-443.01 401.3,-448.29 411.77,-449.89 410.49,-443.01"/>
<text text-anchor="middle" x="532.5" y="-231.8" font-family="Times,serif" font-size="14.00">電源</text>
</g>
<!-- NIGHT&#45;&gt;NIGHT -->
<g id="edge11" class="edge">
<title>NIGHT&#45;&gt;NIGHT</title>
<path fill="none" stroke="black" d="M247.66,-25.87C259.66,-25.96 269.35,-23.33 269.35,-18 269.35,-14.33 264.77,-11.95 258.01,-10.84"/>
<polygon fill="black" stroke="black" points="257.88,-7.33 247.66,-10.13 257.4,-14.31 257.88,-7.33"/>
<text text-anchor="middle" x="283.85" y="-14.3" font-family="Times,serif" font-size="14.00">調光</text>
</g>
<!-- NIGHT&#45;&gt;OFF -->
<g id="edge17" class="edge">
<title>NIGHT&#45;&gt;OFF</title>
<path fill="none" stroke="black" d="M245.39,-27.8C260.51,-33.27 277.82,-41.67 290,-54 296.42,-60.5 301.12,-69.18 304.49,-77.49"/>
<polygon fill="black" stroke="black" points="301.2,-78.68 307.86,-86.92 307.79,-76.32 301.2,-78.68"/>
<text text-anchor="middle" x="322.5" y="-57.8" font-family="Times,serif" font-size="14.00">常夜灯</text>
</g>
<!-- OFF&#45;&gt;ON -->
<g id="edge6" class="edge">
<title>OFF&#45;&gt;ON</title>
<path fill="none" stroke="black" d="M334.51,-116.63C359.39,-130.12 396,-155.94 396,-191 396,-367 396,-367 396,-367 396,-387.26 389.84,-409.31 383.89,-425.88"/>
<polygon fill="black" stroke="black" points="380.55,-424.83 380.28,-435.42 387.09,-427.31 380.55,-424.83"/>
<text text-anchor="middle" x="410.5" y="-275.3" font-family="Times,serif" font-size="14.00">電源</text>
</g>
<!-- OFF&#45;&gt;NIGHT -->
<g id="edge18" class="edge">
<title>OFF&#45;&gt;NIGHT</title>
<path fill="none" stroke="black" d="M286.94,-95.29C272.83,-89.47 255.58,-80.72 243,-69 235.79,-62.28 229.72,-53.44 224.97,-45.07"/>
<polygon fill="black" stroke="black" points="227.93,-43.17 220.18,-35.94 221.73,-46.42 227.93,-43.17"/>
<text text-anchor="middle" x="264.5" y="-57.8" font-family="Times,serif" font-size="14.00">常夜灯</text>
</g>
<!-- OFF&#45;&gt;OFF -->
<g id="edge12" class="edge">
<title>OFF&#45;&gt;OFF</title>
<path fill="none" stroke="black" d="M338.71,-112.81C349.83,-113.34 359.25,-110.74 359.25,-105 359.25,-101.14 354.99,-98.7 348.83,-97.68"/>
<polygon fill="black" stroke="black" points="348.87,-94.18 338.71,-97.19 348.54,-101.17 348.87,-94.18"/>
<text text-anchor="middle" x="373.75" y="-101.3" font-family="Times,serif" font-size="14.00">調光</text>
</g>
</g>
</svg>
